<svg width="56" height="112" viewBox="0 0 56 112" fill="none" xmlns="http://www.w3.org/2000/svg">
<path d="M29.0149 89.4369L6.80743 75.3044C5.65934 74.5452 4.85535 73.3654 4.56859 72.0192C4.28182 70.6729 4.53523 69.2679 5.27424 68.1067C6.01325 66.9455 7.17875 66.1209 8.51975 65.8106C9.86076 65.5003 11.27 65.729 12.444 66.4475L28.7365 76.815L43.3649 66.5749C44.5062 65.8015 45.906 65.5081 47.2618 65.758C48.6176 66.008 49.8207 66.7812 50.6112 67.9107C51.4018 69.0402 51.7163 70.4354 51.4868 71.7948C51.2574 73.1542 50.5024 74.3689 49.3849 75.1763L29.0149 89.4369Z" fill="#EA4435"/>
<path d="M48.1252 102.376H41.1252V70.8762C41.1252 69.4838 41.6784 68.1485 42.6629 67.1639C43.6475 66.1793 44.9829 65.6262 46.3752 65.6262C47.7676 65.6262 49.103 66.1793 50.0876 67.1639C51.0721 68.1485 51.6252 69.4838 51.6252 70.8762L51.6252 98.8762C51.6252 99.8045 51.2565 100.695 50.6001 101.351C49.9437 102.007 49.0535 102.376 48.1252 102.376Z" fill="#00AC47"/>
<path d="M51.5483 70.1149C51.5329 70.0099 51.5342 69.9026 51.5123 69.7978C51.4787 69.6372 51.4162 69.4888 51.3683 69.3337C51.3218 69.1562 51.2658 68.9814 51.2006 68.8099C51.1656 68.7268 51.1117 68.6538 51.072 68.573C50.9631 68.3397 50.8371 68.1148 50.695 67.9001C50.625 67.7984 50.5375 67.7118 50.4602 67.6156C50.3274 67.4406 50.184 67.2741 50.0306 67.117C49.9142 67.0038 49.7815 66.9091 49.655 66.8071C49.5205 66.6918 49.3804 66.5833 49.235 66.4821C49.0962 66.3914 48.9443 66.3216 48.7975 66.2443C48.6428 66.1636 48.4913 66.0757 48.3303 66.0113C48.1747 65.9487 48.0088 65.9088 47.8462 65.861C47.6836 65.8132 47.5219 65.756 47.355 65.725C47.1481 65.6918 46.9395 65.6708 46.7302 65.662C46.5974 65.6528 46.4658 65.6295 46.3325 65.6305C46.0849 65.6377 45.8382 65.6626 45.5941 65.7049C45.4956 65.7196 45.3964 65.7184 45.2986 65.7387C44.9683 65.8396 44.639 65.9434 44.3107 66.0502C44.2206 66.0887 44.1416 66.1459 44.0543 66.1893C43.1656 66.604 42.4161 67.2672 41.8962 68.0987C41.3764 68.9303 41.1085 69.8946 41.125 70.8751V80.9586L49.385 75.1761C50.1961 74.6317 50.8321 73.8639 51.2159 72.9656C51.5998 72.0673 51.7151 71.077 51.5478 70.1146L51.5483 70.1149Z" fill="#FFBA00"/>
<path d="M9.625 65.625C11.0174 65.625 12.3527 66.1781 13.3373 67.1627C14.3219 68.1473 14.875 69.4826 14.875 70.875V102.375H7.875C6.94674 102.375 6.0565 102.006 5.40013 101.35C4.74375 100.693 4.375 99.8033 4.375 98.875V70.875C4.375 69.4826 4.92812 68.1473 5.91269 67.1627C6.89726 66.1781 8.23261 65.625 9.625 65.625Z" fill="#4285F4"/>
<path d="M4.45182 70.1148C4.46722 70.0098 4.46599 69.9025 4.48787 69.7977C4.52147 69.637 4.58394 69.4886 4.63189 69.3336C4.67838 69.1562 4.73434 68.9814 4.79954 68.81C4.83454 68.7269 4.88844 68.6539 4.92834 68.573C5.03716 68.3397 5.16315 68.1147 5.30529 67.9C5.37529 67.7983 5.46279 67.7117 5.54014 67.6154C5.67282 67.4405 5.81625 67.274 5.96959 67.1169C6.08597 67.0036 6.21862 66.909 6.34532 66.8069C6.47975 66.6916 6.61993 66.5831 6.76532 66.482C6.90409 66.3913 7.05599 66.3215 7.20282 66.2441C7.35455 66.1583 7.51049 66.0802 7.67007 66.01C7.82582 65.9473 7.99172 65.9074 8.15412 65.8597C8.31652 65.8119 8.47839 65.7547 8.64534 65.7237C8.85218 65.6905 9.06079 65.6694 9.27009 65.6607C9.40309 65.6514 9.53452 65.6281 9.66787 65.6292C9.91543 65.6364 10.1622 65.6612 10.4062 65.7036C10.5047 65.7183 10.6039 65.717 10.7019 65.7373C10.8713 65.7805 11.0384 65.8324 11.2024 65.8927C11.3674 65.9366 11.5301 65.9887 11.6898 66.0488C11.7798 66.0873 11.8587 66.1446 11.9462 66.188C12.173 66.2945 12.3919 66.4174 12.601 66.5555C13.3022 67.0369 13.8756 67.6817 14.2717 68.4343C14.6679 69.1868 14.875 70.0245 14.875 70.875V80.9585L6.61499 75.1763C5.804 74.6318 5.16812 73.864 4.78423 72.9657C4.40034 72.0675 4.28488 71.0773 4.45182 70.1148Z" fill="#C52528"/>
<g clip-path="url(#clip0_29_36)">
<path d="M53.7997 17.1023C52.3896 13.7679 50.3711 10.7734 47.8002 8.2022C45.2293 5.63095 42.2351 3.61205 38.9008 2.20155C35.4481 0.740906 31.7811 0.00021875 28 0C24.2209 0 20.554 0.740469 17.1014 2.20079C13.7671 3.61102 10.7729 5.62964 8.20181 8.20055C5.63073 10.7715 3.61195 13.7656 2.2015 17.0997C0.740906 20.5523 0.000218798 24.2192 4.8464e-08 27.9984C-0.000218702 31.7778 0.740086 35.4449 2.2003 38.8978C3.61041 42.2323 5.62898 45.2267 8.1999 47.7978C10.7708 50.3691 13.765 52.388 17.0993 53.7985C20.5521 55.2591 24.2191 55.9998 27.9998 56.0001H28.0003C31.7794 56.0001 35.4461 55.2596 38.8988 53.7993C42.2331 52.389 45.2273 50.3704 47.7983 47.7996C50.3693 45.2287 52.3882 42.2346 53.7986 38.9004C55.2592 35.4477 55.9998 31.7808 56.0001 28.0017C56.0002 24.2222 55.2599 20.5552 53.7997 17.1023ZM28.0002 53.3929H27.9986C21.2159 53.3926 14.8393 50.7508 10.0434 45.9544C5.24765 41.158 2.60668 34.7812 2.60706 27.9985C2.60788 13.9976 13.9991 2.60712 28.0015 2.60712C34.7842 2.6075 41.1608 5.24918 45.9565 10.0455C50.7524 14.842 53.3933 21.2188 53.3929 28.0015C53.3921 42.0023 42.001 53.3929 28.0002 53.3929Z" fill="#F0F0F0"/>
<path d="M32.3089 28.9916L28 32.5248L23.6911 28.9916L20.1808 31.87L12.3616 38.2818H28H43.6385L35.8192 31.87L32.3089 28.9916Z" fill="#F0F0F0"/>
<path d="M22.1553 27.9187L17.039 22.9538L11.9229 17.989V27.9187V37.8483L17.039 32.8834L22.1553 27.9187Z" fill="#F0F0F0"/>
<path d="M27.9998 31.3419L35.9378 24.5138L43.8756 17.6857H27.9998H12.1241L20.062 24.5138L27.9998 31.3419Z" fill="#F0F0F0"/>
<path d="M38.961 22.9539L33.8447 27.9187L38.961 32.8835L44.0772 37.8483V27.9187V17.989L38.961 22.9539Z" fill="#F0F0F0"/>
</g>
<defs>
<clipPath id="clip0_29_36">
<rect width="56" height="56" fill="white"/>
</clipPath>
</defs>
</svg>
