<svg width="56" height="112" viewBox="0 0 56 112" fill="none" xmlns="http://www.w3.org/2000/svg">
<ellipse cx="28" cy="83.5" rx="22" ry="22.5" fill="#F0F0F0"/>
<path fill-rule="evenodd" clip-rule="evenodd" d="M24.8782 98.0585H30.515V84.4162H34.2753L34.7735 79.7156H30.515L30.5208 77.3619C30.5208 76.1366 30.6378 75.4788 32.3964 75.4788H34.7467V70.7773H30.9855C26.4679 70.7773 24.8782 73.0582 24.8782 76.893V79.7156H22.0623V84.4171H24.8782V98.0585ZM28.4179 109.493C14.57 109.493 3.34326 98.2658 3.34326 84.4179C3.34326 70.5692 14.57 59.3433 28.4179 59.3433C42.2658 59.3433 53.4925 70.5692 53.4925 84.4179C53.4925 98.2658 42.2658 109.493 28.4179 109.493Z" fill="#3A589B"/>
<g clip-path="url(#clip0_24_57)">
<path d="M53.7997 17.1023C52.3896 13.7679 50.3711 10.7734 47.8002 8.2022C45.2293 5.63095 42.2351 3.61205 38.9008 2.20155C35.4481 0.740906 31.7811 0.00021875 28 0C24.2209 0 20.554 0.740469 17.1014 2.20079C13.7671 3.61102 10.7729 5.62964 8.20181 8.20055C5.63073 10.7715 3.61195 13.7656 2.2015 17.0997C0.740906 20.5523 0.000218798 24.2192 4.8464e-08 27.9984C-0.000218702 31.7778 0.740086 35.4449 2.2003 38.8978C3.61041 42.2323 5.62898 45.2267 8.1999 47.7978C10.7708 50.3691 13.765 52.388 17.0993 53.7985C20.5521 55.2591 24.2191 55.9998 27.9998 56.0001H28.0003C31.7794 56.0001 35.4461 55.2596 38.8988 53.7993C42.2331 52.389 45.2273 50.3704 47.7983 47.7996C50.3693 45.2287 52.3882 42.2346 53.7986 38.9004C55.2592 35.4477 55.9998 31.7808 56.0001 28.0017C56.0002 24.2222 55.2599 20.5552 53.7997 17.1023ZM28.0002 53.3929H27.9986C21.2159 53.3926 14.8393 50.7508 10.0434 45.9544C5.24765 41.158 2.60668 34.7812 2.60706 27.9985C2.60788 13.9976 13.9991 2.60712 28.0015 2.60712C34.7842 2.6075 41.1608 5.24918 45.9565 10.0455C50.7524 14.842 53.3933 21.2188 53.3929 28.0015C53.3921 42.0023 42.001 53.3929 28.0002 53.3929Z" fill="#F0F0F0"/>
<path d="M36.791 16.7148V11.1504C36.5867 11.1504 36.3823 11.15 36.178 11.1504C35.6861 11.1515 35.194 11.1492 34.702 11.1505C34.102 11.152 33.5021 11.148 32.902 11.1505C32.3733 11.1528 31.8445 11.1452 31.3159 11.1507C30.5179 11.159 29.7604 11.1982 28.9951 11.4447C28.2572 11.6823 27.5645 12.0984 26.9745 12.5975C26.6328 12.8865 26.3165 13.196 26.0301 13.54C25.9141 13.6829 25.806 13.8315 25.7051 13.9852C25.4022 14.4462 25.163 14.9533 24.9632 15.491C24.9183 15.612 24.8741 15.7334 24.8321 15.8553C24.524 16.748 24.5138 17.7225 24.5138 18.6606C24.5138 18.7781 24.5138 18.8992 24.5138 19.0231C24.5138 20.8816 24.5138 23.3594 24.5138 23.3594H19.2091V29.4844H24.3224H24.4591V44.8516H30.5294V29.3476L36.0391 29.422L36.7819 23.3995L30.5567 23.3867V18.7383C30.5567 18.7383 30.543 16.7558 32.2246 16.7285L36.791 16.7148Z" fill="#F0F0F0"/>
</g>
<defs>
<clipPath id="clip0_24_57">
<rect width="56" height="56" fill="white"/>
</clipPath>
</defs>
</svg>
