<svg width="56" height="112" viewBox="0 0 56 112" fill="none" xmlns="http://www.w3.org/2000/svg">
<path d="M27.9966 58.3771C13.5877 58.3771 1.90283 70.1394 1.90283 84.6496C1.90283 96.2551 9.37993 106.1 19.7534 109.577C21.0581 109.82 21.5345 109.009 21.5345 108.312C21.5345 107.687 21.5121 106.035 21.4985 103.843C14.2403 105.43 12.7074 100.321 12.7074 100.321C11.5231 97.2849 9.81021 96.4774 9.81021 96.4774C7.43852 94.8485 9.98663 94.8815 9.98663 94.8815C12.6059 95.0676 13.9825 97.5895 13.9825 97.5895C16.3117 101.603 20.0929 100.445 21.5803 99.7712C21.815 98.0736 22.4901 96.916 23.2377 96.2586C17.4437 95.5943 11.3498 93.3403 11.3498 83.2759C11.3498 80.4071 12.3681 78.0622 14.0378 76.2236C13.7671 75.5596 12.8734 72.8869 14.2925 69.2724C14.2925 69.2724 16.4849 68.5663 21.4689 71.9645C23.5504 71.3821 25.7818 71.0915 28.0032 71.0816C30.2181 71.0951 32.4521 71.3821 34.537 71.9681C39.5188 68.5694 41.7076 69.276 41.7076 69.276C43.1297 72.8938 42.2361 75.5631 41.9686 76.2266C43.6418 78.0652 44.6501 80.4102 44.6501 83.2794C44.6501 93.3701 38.5499 95.5909 32.737 96.2416C33.6731 97.0534 34.5078 98.6554 34.5078 101.106C34.5078 104.619 34.4754 107.451 34.4754 108.312C34.4754 109.015 34.9449 109.833 36.2693 109.574C46.6268 106.094 54.0972 96.2519 54.0972 84.6496C54.0973 70.1393 42.4125 58.3771 27.9966 58.3771Z" fill="#6879D9"/>
<path fill-rule="evenodd" clip-rule="evenodd" d="M32.3895 38.7378C37.8457 38.0935 43.6488 36.1096 43.6488 26.6855C43.6488 24.0069 42.7056 21.824 41.1693 20.1374C41.4171 19.4931 42.21 17.0624 40.8703 13.69C40.8703 13.69 38.8863 13.0449 34.2247 16.1695C32.2408 15.6244 30.0587 15.2766 28.0252 15.2766C25.9412 15.2766 23.7583 15.6244 21.8239 16.1695C17.1118 13.0449 15.128 13.69 15.128 13.69C13.7891 17.0624 14.583 19.4931 14.8307 20.1374C13.2928 21.8239 12.3504 24.0069 12.3504 26.6855C12.3504 36.1096 18.1535 38.0935 23.6097 38.7378C22.9158 39.3341 22.2708 40.4739 22.023 42.0614C20.6337 42.6561 17.0127 43.7975 14.8307 40.0279C14.8307 40.0279 13.5406 37.6971 11.1106 37.5484C11.1106 37.5484 8.67989 37.4989 10.9123 39.0351C10.9123 39.0351 12.5486 39.7801 13.6405 42.6065C13.6405 42.6065 15.128 47.3193 21.9726 45.8309V50.0465C21.9726 50.6925 21.4771 51.4358 20.2373 51.2376C10.5152 48.0131 3.52188 38.7872 3.52188 27.9748C3.52188 14.4335 14.483 3.47244 28.0252 3.47244C41.5162 3.47244 52.5277 14.4336 52.4781 27.9748C52.4781 38.7872 45.484 47.9636 35.7626 51.2376C34.522 51.4854 34.0265 50.7421 34.0265 50.0465V43.2523C34.0266 40.9694 33.2815 39.4827 32.3895 38.7378ZM56 28.0252C56 12.5486 43.4506 0 28.0252 0C12.5486 0 0 12.5486 0 28.0252C0 43.4506 12.5486 56 28.0252 56C43.4506 56 56 43.4506 56 28.0252Z" fill="#F0F0F0"/>
</svg>
