<svg width="56" height="112" viewBox="0 0 56 112" fill="none" xmlns="http://www.w3.org/2000/svg">
<path d="M28 56C43.4 56 56 68.6 56 84C56 99.4 43.4 112 28 112C12.6 112 0 99.4 0 84C0 68.6 12.6 56 28 56Z" fill="url(#paint0_linear_24_58)"/>
<path d="M36.225 66.5H19.6C14.525 66.5 10.5 70.7 10.5 75.95V92.05C10.5 97.125 14.525 101.325 19.775 101.5H36.4C41.475 101.5 45.675 97.3 45.675 92.05V75.95C45.5 70.7 41.475 66.5 36.225 66.5ZM42.35 91.875C42.35 95.375 39.55 98.35 35.875 98.35H19.95C16.45 98.35 13.475 95.375 13.65 91.875V76.125C13.65 72.625 16.45 69.65 19.95 69.65H35.875C39.375 69.65 42.35 72.625 42.35 76.125V91.875Z" fill="white"/>
<path d="M28 75.0751C23.1 74.9001 18.9 78.9251 18.9 83.8251C18.725 88.7251 22.75 92.9251 27.65 92.9251C32.55 92.9251 36.75 89.0751 36.75 84.1751V84.0001C36.925 79.1001 32.9 75.0751 28 75.0751ZM28 89.7751C24.85 89.7751 22.225 87.3251 22.05 84.1751C22.05 81.0251 24.5 78.4001 27.65 78.2251C30.8 78.0501 33.425 80.6751 33.6 83.8251V84.0001C33.775 87.1501 31.15 89.7751 28 89.7751Z" fill="white"/>
<path d="M37.275 72.45C38.325 72.45 39.2 73.325 39.2 74.55C39.2 75.775 38.325 76.65 37.275 76.65C36.225 76.65 35.35 75.775 35.35 74.55C35.35 73.325 36.225 72.45 37.275 72.45Z" fill="white"/>
<g clip-path="url(#clip0_24_58)">
<path d="M53.7997 17.1023C52.3896 13.7679 50.3711 10.7734 47.8002 8.2022C45.2293 5.63095 42.2351 3.61205 38.9008 2.20155C35.4481 0.740906 31.7811 0.00021875 28 0C24.2209 0 20.554 0.740469 17.1014 2.20079C13.7671 3.61102 10.7729 5.62964 8.20181 8.20055C5.63073 10.7715 3.61195 13.7656 2.2015 17.0997C0.740906 20.5523 0.000218798 24.2192 4.8464e-08 27.9984C-0.000218702 31.7778 0.740086 35.4449 2.2003 38.8978C3.61041 42.2323 5.62898 45.2267 8.1999 47.7978C10.7708 50.3691 13.765 52.388 17.0993 53.7985C20.5521 55.2591 24.2191 55.9998 27.9998 56.0001H28.0003C31.7794 56.0001 35.4461 55.2596 38.8988 53.7993C42.2331 52.389 45.2273 50.3704 47.7983 47.7996C50.3693 45.2287 52.3882 42.2346 53.7986 38.9004C55.2592 35.4477 55.9998 31.7808 56.0001 28.0017C56.0002 24.2222 55.2599 20.5552 53.7997 17.1023ZM28.0002 53.3929H27.9986C21.2159 53.3926 14.8393 50.7508 10.0434 45.9544C5.24765 41.158 2.60668 34.7812 2.60706 27.9985C2.60788 13.9976 13.9991 2.60712 28.0015 2.60712C34.7842 2.6075 41.1608 5.24918 45.9565 10.0455C50.7524 14.842 53.3933 21.2188 53.3929 28.0015C53.3921 42.0023 42.001 53.3929 28.0002 53.3929Z" fill="#F0F0F0"/>
<path d="M36.0262 21.749C37.027 21.749 37.8384 20.9377 37.8384 19.9369C37.8384 18.9361 37.027 18.1248 36.0262 18.1248C35.0254 18.1248 34.2141 18.9361 34.2141 19.9369C34.2141 20.9377 35.0254 21.749 36.0262 21.749Z" fill="#F0F0F0"/>
<path d="M27.9999 35.8701C23.6603 35.8701 20.1298 32.3395 20.1298 27.9999C20.1298 23.6603 23.6603 20.1298 27.9999 20.1298C32.3396 20.1298 35.8702 23.6603 35.8702 27.9999C35.8702 32.3396 32.3396 35.8701 27.9999 35.8701ZM27.9999 22.5907C25.0173 22.5907 22.5907 25.0173 22.5907 27.9999C22.5907 30.9826 25.0173 33.4092 27.9999 33.4092C30.9827 33.4092 33.4093 30.9826 33.4093 27.9999C33.4093 25.0173 30.9827 22.5907 27.9999 22.5907Z" fill="#F0F0F0"/>
<path d="M33.0117 43.7502H22.9883C17.3342 43.7502 12.7344 39.1504 12.7344 33.4963V22.5035C12.7344 16.8495 17.3342 12.2496 22.9883 12.2496H33.0116C38.6657 12.2496 43.2655 16.8495 43.2655 22.5035V33.4963C43.2656 39.1504 38.6657 43.7502 33.0117 43.7502ZM22.9883 14.7106C18.6912 14.7106 15.1953 18.2065 15.1953 22.5035V33.4963C15.1953 37.7934 18.6912 41.2893 22.9883 41.2893H33.0116C37.3086 41.2893 40.8045 37.7934 40.8045 33.4963V22.5035C40.8045 18.2065 37.3086 14.7106 33.0116 14.7106H22.9883Z" fill="#F0F0F0"/>
</g>
<defs>
<linearGradient id="paint0_linear_24_58" x1="13.9952" y1="108.254" x2="42" y2="59.7488" gradientUnits="userSpaceOnUse">
<stop stop-color="#FEC053"/>
<stop offset="0.327" stop-color="#F2203E"/>
<stop offset="0.648" stop-color="#B729A8"/>
<stop offset="1" stop-color="#5342D6"/>
</linearGradient>
<clipPath id="clip0_24_58">
<rect width="56" height="56" fill="white"/>
</clipPath>
</defs>
</svg>
