<svg width="56" height="112" viewBox="0 0 56 112" fill="none" xmlns="http://www.w3.org/2000/svg">
<circle cx="28.5" cy="83.5" r="23.5" fill="#F0F0F0"/>
<path fill-rule="evenodd" clip-rule="evenodd" d="M42.4906 96.2339V86.4448C42.4906 81.2 39.6906 78.7594 35.9578 78.7594C32.9455 78.7594 31.5957 80.4168 30.8434 81.5794V79.1606H25.1682C25.2434 80.7628 25.1682 96.2339 25.1682 96.2339H30.8434V86.6988C30.8434 86.1898 30.8802 85.68 31.0307 85.3156C31.4402 84.2959 32.3738 83.2402 33.941 83.2402C35.9954 83.2402 36.8162 84.8057 36.8162 87.1V96.2347H42.4906V96.2339ZM19.1896 76.8303C21.168 76.8303 22.4008 75.5181 22.4008 73.879C22.364 72.2049 21.168 70.9302 19.2272 70.9302C17.2864 70.9302 16.0168 72.204 16.0168 73.879C16.0168 75.5181 17.2488 76.8303 19.1536 76.8303H19.1896ZM28.4179 109.493C14.57 109.493 3.34326 98.2658 3.34326 84.4179C3.34326 70.5692 14.57 59.3433 28.4179 59.3433C42.2658 59.3433 53.4925 70.5692 53.4925 84.4179C53.4925 98.2658 42.2658 109.493 28.4179 109.493ZM22.0272 96.2339V79.1606H16.3528V96.2339H22.0272Z" fill="#0077B5"/>
<g clip-path="url(#clip0_24_60)">
<path d="M53.7997 17.1023C52.3896 13.7679 50.3711 10.7734 47.8002 8.2022C45.2293 5.63095 42.2351 3.61205 38.9008 2.20155C35.4481 0.740906 31.7811 0.00021875 28 0C24.2209 0 20.554 0.740469 17.1014 2.20079C13.7671 3.61102 10.7729 5.62964 8.20181 8.20055C5.63073 10.7715 3.61195 13.7656 2.2015 17.0997C0.740906 20.5523 0.000218798 24.2192 4.8464e-08 27.9984C-0.000218702 31.7778 0.740086 35.4449 2.2003 38.8978C3.61041 42.2323 5.62898 45.2267 8.1999 47.7978C10.7708 50.3691 13.765 52.388 17.0993 53.7985C20.5521 55.2591 24.2191 55.9998 27.9998 56.0001H28.0003C31.7794 56.0001 35.4461 55.2596 38.8988 53.7993C42.2331 52.389 45.2273 50.3704 47.7983 47.7996C50.3693 45.2287 52.3882 42.2346 53.7986 38.9004C55.2592 35.4477 55.9998 31.7808 56.0001 28.0017C56.0002 24.2222 55.2599 20.5552 53.7997 17.1023ZM28.0002 53.3929H27.9986C21.2159 53.3926 14.8393 50.7508 10.0434 45.9544C5.24765 41.158 2.60668 34.7812 2.60706 27.9985C2.60788 13.9976 13.9991 2.60712 28.0015 2.60712C34.7842 2.6075 41.1608 5.24918 45.9565 10.0455C50.7524 14.842 53.3933 21.2188 53.3929 28.0015C53.3921 42.0023 42.001 53.3929 28.0002 53.3929Z" fill="#F0F0F0"/>
<path d="M15.5142 40.0705H21.3276L21.3206 19.7026H15.5072L15.5142 40.0705Z" fill="#F0F0F0"/>
<path d="M41.3777 25.1516C41.2354 24.341 41.0045 23.543 40.6508 22.7984C40.4466 22.3683 40.1893 21.9618 39.8842 21.5955C39.5282 21.1682 39.0547 20.7749 38.5737 20.4949C38.1617 20.255 37.6918 20.0372 37.232 19.9068C36.9594 19.8372 36.6794 19.7893 36.3952 19.7573C35.5424 19.6614 34.6532 19.7078 33.7987 19.7737C33.5534 19.8023 33.3097 19.8369 33.0683 19.8784C32.8269 19.9198 32.5877 19.9681 32.3515 20.0225C31.9348 20.1509 31.5722 20.3535 31.2624 20.6192C30.9526 20.885 30.6956 21.214 30.489 21.5948C30.3705 21.8134 30.2679 22.044 30.201 22.284C30.1976 22.2966 30.1372 22.5804 30.1496 22.5804H30.0592L30.052 19.7026H24.2408L24.2479 40.0749H30.0207C30.0207 40.0749 30.0207 29.15 30.0207 27.6558C30.0207 26.9614 30.4667 26.3829 31.0389 26.0358C31.5937 25.6993 32.2797 25.6692 32.9106 25.6284C33.1985 25.6097 33.4985 25.6191 33.7852 25.6487C34.2831 25.7001 34.7848 25.8574 35.157 26.2055C35.7784 26.7868 35.8748 27.6732 35.8748 28.4762C35.8748 29.125 35.8748 29.7738 35.8748 30.4226C35.8748 31.4027 35.8748 32.3826 35.8748 33.3626C35.8748 34.4113 35.8748 35.4598 35.8748 36.5083C35.8748 37.3594 35.8748 38.2104 35.8748 39.0615C35.8748 39.3994 35.8748 39.7372 35.8748 40.0751H41.5931C41.5931 39.7376 41.5931 39.4001 41.5931 39.0626C41.5931 38.1972 41.5931 37.3318 41.5931 36.4662C41.5931 35.4006 41.5931 34.3348 41.5931 33.2692C41.5931 31.5233 41.5931 29.7774 41.5931 28.0316C41.5931 27.0715 41.544 26.0991 41.3777 25.1516Z" fill="#F0F0F0"/>
<path d="M18.4209 18.3375C20.0338 18.3375 21.3412 17.03 21.3412 15.4171C21.3412 13.8043 20.0338 12.4968 18.4209 12.4968C16.8081 12.4968 15.5006 13.8043 15.5006 15.4171C15.5006 17.03 16.8081 18.3375 18.4209 18.3375Z" fill="#F0F0F0"/>
</g>
<defs>
<clipPath id="clip0_24_60">
<rect width="56" height="56" fill="white"/>
</clipPath>
</defs>
</svg>
