<svg width="64" height="64" viewBox="0 0 64 64" fill="none" xmlns="http://www.w3.org/2000/svg">
<mask id="mask0_202_11" style="mask-type:alpha" maskUnits="userSpaceOnUse" x="0" y="0" width="64" height="64">
<rect width="64" height="64" fill="#C4C4C4"/>
</mask>
<g mask="url(#mask0_202_11)">
<path d="M32.1384 5.55782C31.3838 5.8373 30.5593 6.6897 30.3218 7.44428C29.9165 8.68795 18.2205 55.6679 18.2205 56.0452C18.2205 56.7579 18.5139 57.4985 19.003 58.0435C20.3724 59.5527 22.8178 59.2592 23.7681 57.4845C24.1454 56.7719 36.107 9.0373 36.107 8.25476C36.107 7.47223 35.4222 6.32638 34.6956 5.87922C33.927 5.40411 32.893 5.27834 32.1384 5.55782Z" fill="#F0F0F0"/>
<path d="M13.8887 11.9233C13.6232 12.0631 10.563 15.0255 7.09746 18.519C0.935008 24.7094 0.781296 24.8631 0.61361 25.5758C0.487846 26.1627 0.487846 26.4701 0.61361 27.043C0.781296 27.7696 0.935008 27.9234 7.09746 34.1138C10.563 37.6072 13.6372 40.5697 13.9167 40.7234C14.5595 41.0587 15.8311 41.0727 16.4879 40.7653C17.4521 40.3042 18.2206 39.1024 18.2206 38.0544C18.2206 36.9085 18.1368 36.8107 12.7988 31.4448L7.68436 26.3164L12.7988 21.174C18.2206 15.7382 18.2206 15.7382 18.2206 14.4386C18.2067 13.4604 17.2984 12.1469 16.3621 11.7976C15.7333 11.56 14.4477 11.6159 13.8887 11.9233Z" fill="#F0F0F0"/>
<path d="M4.80559 52.7239C5.07109 52.5842 8.13136 49.6217 11.5969 46.1282C17.7593 39.9378 17.913 39.7841 18.0807 39.0715C18.2065 38.4846 18.2065 38.1771 18.0807 37.6042C17.913 36.8776 17.7593 36.7239 11.5969 30.5335C8.13136 27.04 5.05712 24.0776 4.77764 23.9238C4.13485 23.5885 2.86323 23.5745 2.20646 23.8819C1.24227 24.3431 0.473705 25.5448 0.473705 26.5928C0.473705 27.7387 0.557548 27.8365 5.89555 33.2025L11.01 38.3309L5.89555 43.4732C0.473705 48.909 0.473705 48.909 0.473705 50.2086C0.487678 51.1868 1.39598 52.5003 2.33222 52.8497C2.96105 53.0872 4.24664 53.0313 4.80559 52.7239Z" fill="#F0F0F0"/>
<path d="M49.0818 11.9014C48.3143 11.9603 47.5171 12.3704 46.9681 12.9643C46.4618 13.5105 46.1713 14.7486 46.3748 15.4235C46.458 15.6996 48.5698 18.7727 51.0739 22.2477L55.6373 28.5982L49.0039 32.309C44.5114 34.834 42.2547 36.1801 42.0108 36.4839C41.0841 37.6954 41.4006 39.5261 42.7179 40.4622C43.4931 41.0205 44.8211 41.3293 45.6801 41.1475C46.4748 40.9659 62.368 32.0512 62.859 31.5017C63.3713 30.9283 63.6129 29.6936 63.3787 28.9404C63.2646 28.5859 60.8185 25.0665 57.4858 20.4774C52.1798 13.1321 51.7534 12.5939 51.1135 12.2946C50.2378 11.9001 49.8676 11.8323 49.0818 11.9014Z" fill="#F0F0F0"/>
<path d="M47.6609 12.0078C46.9211 12.2727 46.1391 12.9906 45.9381 13.5961C45.5932 14.5949 36.1693 52.1029 36.1874 52.3984C36.2215 52.9565 36.5499 53.5186 37.0642 53.9156C38.5034 55.0139 40.9302 54.6348 41.7936 53.1869C42.1361 52.6057 51.7888 14.4906 51.7513 13.8777C51.7138 13.2648 50.9755 12.4092 50.2288 12.1034C49.4389 11.7782 48.4007 11.7428 47.6609 12.0078Z" fill="#F0F0F0"/>
</g>
</svg>
