<svg width="128" height="128" viewBox="0 0 128 128" fill="none" xmlns="http://www.w3.org/2000/svg">
<mask id="mask0_201_2" style="mask-type:alpha" maskUnits="userSpaceOnUse" x="0" y="0" width="128" height="128">
<rect width="128" height="128" fill="#C4C4C4"/>
</mask>
<g mask="url(#mask0_201_2)">
<path d="M64.2769 11.1156C62.7677 11.6746 61.1188 13.3794 60.6437 14.8886C59.8332 17.3759 36.441 111.336 36.441 112.09C36.441 113.516 37.0279 114.997 38.0061 116.087C40.745 119.105 45.6358 118.518 47.5363 114.969C48.2908 113.544 72.214 18.0746 72.214 16.5095C72.214 14.9445 70.8446 12.6528 69.3913 11.7584C67.8542 10.8082 65.7861 10.5567 64.2769 11.1156Z" fill="#E66F69"/>
<path d="M27.7774 23.8467C27.2464 24.1261 21.1258 30.051 14.1948 37.0379C1.86989 49.4188 1.56247 49.7262 1.2271 51.1515C0.97557 52.3253 0.97557 52.9402 1.2271 54.086C1.56247 55.5393 1.86989 55.8467 14.1948 68.2275C21.1258 75.2144 27.2743 81.1393 27.8333 81.4468C29.1188 82.1175 31.6621 82.1454 32.9756 81.5306C34.904 80.6083 36.4411 78.2048 36.4411 76.1087C36.4411 73.817 36.2734 73.6214 25.5974 62.8895L15.3686 52.6327L25.5974 42.348C36.4411 31.4764 36.4411 31.4764 36.4411 28.8772C36.4132 26.9209 34.5966 24.2938 32.7241 23.5951C31.4665 23.12 28.8953 23.2318 27.7774 23.8467Z" fill="#E66F69"/>
<path d="M9.6113 105.448C10.1423 105.168 16.2628 99.2433 23.1939 92.2564C35.5188 79.8756 35.8262 79.5681 36.1616 78.1428C36.4131 76.969 36.4131 76.3542 36.1616 75.2083C35.8262 73.755 35.5188 73.4476 23.1939 61.0668C16.2628 54.0799 10.1144 48.155 9.55541 47.8476C8.26982 47.1768 5.72658 47.1489 4.41304 47.7637C2.48465 48.686 0.947532 51.0895 0.947532 53.1856C0.947532 55.4773 1.11522 55.6729 11.7912 66.4048L22.0201 76.6616L11.7912 86.9463C0.947532 97.818 0.947532 97.818 0.947532 100.417C0.975478 102.373 2.79208 105.001 4.66457 105.699C5.92221 106.174 8.4934 106.063 9.6113 105.448Z" fill="#E66F69"/>
<path d="M98.1635 23.803C96.6286 23.9207 95.0342 24.7409 93.9361 25.9288C92.9235 27.0211 92.3424 29.4973 92.7495 30.8471C92.916 31.3993 97.1394 37.5455 102.148 44.4956L111.274 57.1965L98.0077 64.618C89.0228 69.6682 84.5093 72.3603 84.0215 72.9678C82.168 75.3909 82.801 79.0523 85.4358 80.9246C86.986 82.0412 89.6421 82.6586 91.36 82.2952C92.9494 81.9319 124.736 64.1026 125.718 63.0035C126.743 61.8566 127.226 59.3874 126.757 57.8808C126.529 57.1719 121.637 50.133 114.971 40.9549C104.36 26.2644 103.507 25.1879 102.227 24.5893C100.476 23.8003 99.7351 23.6648 98.1635 23.803Z" fill="#E66F69"/>
<path d="M95.3219 24.0155C93.8423 24.5454 92.2781 25.9812 91.8762 27.1922C91.1864 29.1897 72.3387 104.206 72.3748 104.797C72.4431 105.913 73.0998 107.037 74.1284 107.831C77.0067 110.028 81.8603 109.27 83.5872 106.374C84.2721 105.211 103.578 28.9811 103.503 27.7554C103.428 26.5296 101.951 24.8184 100.458 24.2067C98.8778 23.5563 96.8015 23.4856 95.3219 24.0155Z" fill="#E66F69"/>
</g>
</svg>
