<svg width="56" height="112" viewBox="0 0 56 112" fill="none" xmlns="http://www.w3.org/2000/svg">
<g clip-path="url(#clip0_54_31)">
<path d="M53.7997 17.1023C52.3896 13.7679 50.3711 10.7734 47.8002 8.2022C45.2293 5.63095 42.2351 3.61205 38.9008 2.20155C35.4481 0.740906 31.7811 0.00021875 28 0C24.2209 0 20.554 0.740469 17.1014 2.20079C13.7671 3.61102 10.7729 5.62964 8.20181 8.20055C5.63073 10.7715 3.61195 13.7656 2.2015 17.0997C0.740906 20.5523 0.000218798 24.2192 4.8464e-08 27.9984C-0.000218702 31.7778 0.740086 35.4449 2.2003 38.8978C3.61041 42.2323 5.62898 45.2267 8.1999 47.7978C10.7708 50.3691 13.765 52.388 17.0993 53.7985C20.5521 55.2591 24.2191 55.9998 27.9998 56.0001H28.0003C31.7794 56.0001 35.4461 55.2596 38.8988 53.7993C42.2331 52.389 45.2273 50.3704 47.7983 47.7996C50.3693 45.2287 52.3882 42.2346 53.7986 38.9004C55.2592 35.4477 55.9998 31.7808 56.0001 28.0017C56.0002 24.2222 55.2599 20.5552 53.7997 17.1023ZM28.0002 53.3929H27.9986C21.2159 53.3926 14.8393 50.7508 10.0434 45.9544C5.24765 41.158 2.60668 34.7812 2.60706 27.9985C2.60788 13.9976 13.9991 2.60712 28.0015 2.60712C34.7842 2.6075 41.1608 5.24918 45.9565 10.0455C50.7524 14.842 53.3933 21.2188 53.3929 28.0015C53.3921 42.0023 42.001 53.3929 28.0002 53.3929Z" fill="#F0F0F0"/>
<path d="M37.4234 45.421C37.4234 45.421 44.8215 15.8432 43.2162 15.0333C41.611 14.2234 6.65235 28.4626 6.65235 28.4626C2.98926 30.1917 15.9478 33.377 15.9478 33.377L37.4072 20.0135L21.0393 35.7189C21.0393 35.7189 36.1808 50.0617 37.4234 45.421Z" fill="white"/>
</g>
<path d="M28 112C43.464 112 56 99.464 56 84C56 68.536 43.464 56 28 56C12.536 56 0 68.536 0 84C0 99.464 12.536 112 28 112Z" fill="#25A3E2"/>
<path d="M37.4234 101.421C37.4234 101.421 44.8215 71.8432 43.2162 71.0333C41.611 70.2234 6.65235 84.4626 6.65235 84.4626C2.98926 86.1917 15.9478 89.377 15.9478 89.377L37.4072 76.0135L21.0393 91.7189C21.0393 91.7189 36.1808 106.062 37.4234 101.421Z" fill="white"/>
<defs>
<clipPath id="clip0_54_31">
<rect width="56" height="56" fill="white"/>
</clipPath>
</defs>
</svg>
