<svg width="56" height="112" viewBox="0 0 56 112" fill="none" xmlns="http://www.w3.org/2000/svg">
<path d="M56 84C56 68.536 43.464 56 28 56C12.536 56 0 68.536 0 84C0 99.464 12.536 112 28 112C43.464 112 56 99.464 56 84Z" fill="#55ACEE"/>
<path d="M34.7032 69.4344C30.7304 69.5351 27.5436 72.7867 27.5436 76.7844C27.5436 77.3599 27.6053 77.9225 27.7312 78.4616C21.6198 78.1546 16.2016 75.2273 12.5748 70.7784C11.9418 71.8639 11.578 73.1284 11.578 74.4772C11.578 77.028 12.8781 79.2769 14.8512 80.5952C13.6463 80.5567 12.5108 80.2248 11.5192 79.674C11.5186 79.7046 11.5192 79.7379 11.5192 79.7692C11.5192 83.3313 14.0546 86.2998 17.4188 86.9764C16.8018 87.1438 16.152 87.234 15.4812 87.234C15.0068 87.234 14.5468 87.189 14.098 87.1024C15.0343 90.0235 17.7464 92.1507 20.9636 92.2096C18.447 94.182 15.2812 95.3568 11.8356 95.3568C11.2426 95.3568 10.6554 95.3244 10.08 95.256C13.335 97.3434 17.1979 98.56 21.35 98.56C34.8757 98.56 42.2716 87.3555 42.2716 77.6384C42.2716 77.3198 42.2658 76.9994 42.252 76.6836C43.6881 75.6491 44.9349 74.3532 45.92 72.8784C44.6024 73.4641 43.1854 73.8608 41.6976 74.0376C43.2167 73.1282 44.3823 71.6877 44.9316 69.9692C43.5107 70.8124 41.9367 71.4253 40.2612 71.7556C38.9203 70.3267 37.0085 69.4344 34.8936 69.4344C34.8301 69.4344 34.7662 69.4328 34.7032 69.4344Z" fill="white"/>
<g clip-path="url(#clip0_27_14)">
<path d="M53.7997 17.1023C52.3896 13.7679 50.3711 10.7734 47.8002 8.2022C45.2293 5.63095 42.2351 3.61205 38.9008 2.20155C35.4481 0.740906 31.7811 0.00021875 28 0C24.2209 0 20.554 0.740469 17.1014 2.20079C13.7671 3.61102 10.7729 5.62964 8.20181 8.20055C5.63073 10.7715 3.61195 13.7656 2.2015 17.0997C0.740906 20.5523 0.000218798 24.2192 4.8464e-08 27.9984C-0.000218702 31.7778 0.740086 35.4449 2.2003 38.8978C3.61041 42.2323 5.62898 45.2267 8.1999 47.7978C10.7708 50.3691 13.765 52.388 17.0993 53.7985C20.5521 55.2591 24.2191 55.9998 27.9998 56.0001H28.0003C31.7794 56.0001 35.4461 55.2596 38.8988 53.7993C42.2331 52.389 45.2273 50.3704 47.7983 47.7996C50.3693 45.2287 52.3882 42.2346 53.7986 38.9004C55.2592 35.4477 55.9998 31.7808 56.0001 28.0017C56.0002 24.2222 55.2599 20.5552 53.7997 17.1023ZM28.0002 53.3929H27.9986C21.2159 53.3926 14.8393 50.7508 10.0434 45.9544C5.24765 41.158 2.60668 34.7812 2.60706 27.9985C2.60788 13.9976 13.9991 2.60712 28.0015 2.60712C34.7842 2.6075 41.1608 5.24918 45.9565 10.0455C50.7524 14.842 53.3933 21.2188 53.3929 28.0015C53.3921 42.0023 42.001 53.3929 28.0002 53.3929Z" fill="#F0F0F0"/>
<path d="M40.6321 19.0593C40.6321 19.0593 43.5131 16.6346 43.4218 15.5525C43.4218 15.5525 40.0977 17.0126 39.3676 17.0778C39.3676 17.0778 39.1364 16.8452 38.758 16.5394C38.6319 16.4374 38.4894 16.3273 38.3336 16.2151C38.045 16.0044 37.7411 15.8233 37.4256 15.6699C37.2679 15.5932 37.1073 15.5234 36.9445 15.4599C35.8848 14.9955 34.7237 14.8817 33.584 15.0064C33.4211 15.0242 33.2588 15.0469 33.0972 15.0741C31.2069 15.37 29.5904 16.5172 28.5731 18.0813C28.4818 18.224 28.3971 18.3705 28.3199 18.5206C28.1658 18.821 28.0416 19.1362 27.9543 19.465C27.92 19.5864 27.8825 19.7278 27.8471 19.8787C27.8117 20.0297 27.7783 20.1902 27.7522 20.3499C27.6479 20.9887 27.7522 23.0615 27.7522 23.0615C27.7522 23.0615 19.3438 23.3222 13.9468 16.3347C13.9468 16.3347 11.2874 21.3667 15.8761 24.8865C15.8761 24.8865 14.9429 25.3037 13.1803 24.2608C13.1803 24.2608 12.3042 28.0934 17.988 30.7267H15.2244C15.2244 30.7267 16.1891 34.9766 21.3255 35.3676C21.3255 35.3676 18.9007 38.6267 11.8611 38.1313C11.8611 38.1313 18.2125 42.5476 26.3952 40.4979C26.5412 40.4613 26.688 40.4226 26.8352 40.3819C28.1303 39.9824 29.434 39.5131 30.618 38.8838C30.7213 38.8302 30.8247 38.7754 30.9282 38.7193C31.2386 38.5513 31.5503 38.3724 31.8633 38.1824C31.8633 38.1824 40.4667 33.5208 41.1706 21.476C41.1706 21.476 42.9787 20.415 44.1389 18.3814C44.1389 18.3815 40.8798 19.1375 40.6321 19.0593Z" fill="#F0F0F0"/>
</g>
<defs>
<clipPath id="clip0_27_14">
<rect width="56" height="56" fill="white"/>
</clipPath>
</defs>
</svg>
